<svg width="64" height="64" viewBox="0 0 64 64" fill="none" xmlns="http://www.w3.org/2000/svg">
  <defs>
    <linearGradient id="cherryFill" x1="18" y1="16" x2="46" y2="54" gradientUnits="userSpaceOnUse">
      <stop stop-color="#FF7A90" />
      <stop offset="0.55" stop-color="#E11D48" />
      <stop offset="1" stop-color="#991B1B" />
    </linearGradient>
    <linearGradient id="stemFill" x1="22" y1="10" x2="42" y2="28" gradientUnits="userSpaceOnUse">
      <stop stop-color="#8B5A2B" />
      <stop offset="1" stop-color="#5B3A1A" />
    </linearGradient>
    <linearGradient id="leafFill" x1="24" y1="8" x2="40" y2="22" gradientUnits="userSpaceOnUse">
      <stop stop-color="#BBF7D0" />
      <stop offset="1" stop-color="#22C55E" />
    </linearGradient>
  </defs>
  <rect width="64" height="64" rx="16" fill="#0B1220" />
  <path d="M24 14C30 8 36 8 40 12C35 16 31 19 28 24" stroke="url(#stemFill)" stroke-width="4" stroke-linecap="round"/>
  <path d="M40 12C45 12 49 15 51 20C46 21 41 21 36 18" fill="url(#leafFill)" opacity="0.95"/>
  <path d="M28 24C30 18 36 16 40 18C38 24 36 28 32 31" fill="url(#leafFill)" opacity="0.95"/>
  <circle cx="25" cy="40" r="14" fill="url(#cherryFill)"/>
  <circle cx="41" cy="40" r="14" fill="url(#cherryFill)"/>
  <circle cx="20" cy="34" r="3" fill="white" fill-opacity="0.38"/>
  <circle cx="36" cy="34" r="3" fill="white" fill-opacity="0.38"/>
</svg>
